<svg width="321" height="59" viewBox="0 0 321 59" fill="none" xmlns="http://www.w3.org/2000/svg">
<path fill-rule="evenodd" clip-rule="evenodd" d="M19.2847 22.3453L15.8878 22.2539C12.7206 22.1673 9.8599 21.8787 7.17434 20.1037C4.89745 18.5885 3.90496 16.1208 4.00713 13.4655C4.1093 10.8102 6.41537 8.03947 8.37116 6.5098C10.7503 4.66264 14.837 2.91651 17.902 3.00309L75.5394 4.56163L178.014 7.31793L280.503 10.0742C283.67 10.1608 286.531 10.4494 289.217 12.2244C291.494 13.7397 292.471 16.2074 292.384 18.8626C292.326 20.6083 291.31 22.4039 290.06 23.8639L303.231 23.986C308.894 24.0293 315.375 26.2084 315.156 32.9332C315.068 35.6029 312.791 38.4025 310.806 39.961C308.165 42.0388 304.604 43.2221 301.277 43.4821L301.275 43.4966L301.11 43.4951C299.2 43.644 297.29 43.793 295.381 43.942C277.54 45.3342 259.697 46.7266 241.843 48.0135C206.58 50.5678 172.091 52.6891 135.909 53.7714C99.7269 54.8537 63.5302 54.7094 27.3773 52.8767C24.5896 52.7468 21.8019 51.1017 20.065 48.9371C18.3282 46.7724 18.5179 43.944 19.4228 41.5196C19.5187 41.2618 19.6331 41.007 19.7639 40.7559C14.8018 40.1765 9.99482 37.7592 10.1839 31.9519C10.2715 29.2822 12.5484 26.4826 14.5334 24.9241C15.8041 23.925 17.5044 22.9974 19.2847 22.3453Z" fill="#FF00A1"/>
<path d="M56.919 23.0909L59.5558 31.3793H59.657L62.299 23.0909H64.8558L61.0952 34H58.1229L54.3569 23.0909H56.919ZM66.599 34H64.1274L67.8934 23.0909H70.8657L74.6263 34H72.1547L69.4221 25.5838H69.3369L66.599 34ZM66.4445 29.712H72.2826V31.5124H66.4445V29.712ZM75.9394 34V23.0909H78.2458V32.0984H82.9227V34H75.9394ZM86.7566 23.0909V34H84.4501V23.0909H86.7566ZM92.5214 34H88.6542V23.0909H92.5534C93.6507 23.0909 94.5953 23.3093 95.3872 23.7461C96.1791 24.1793 96.7881 24.8026 97.2142 25.6158C97.6439 26.429 97.8588 27.402 97.8588 28.5348C97.8588 29.6712 97.6439 30.6477 97.2142 31.4645C96.7881 32.2812 96.1755 32.908 95.3765 33.3448C94.5811 33.7816 93.6294 34 92.5214 34ZM90.9607 32.0238H92.4255C93.1073 32.0238 93.6808 31.9031 94.146 31.6616C94.6148 31.4165 94.9664 31.0384 95.2007 30.527C95.4387 30.0121 95.5576 29.348 95.5576 28.5348C95.5576 27.7287 95.4387 27.07 95.2007 26.5586C94.9664 26.0472 94.6166 25.6708 94.1514 25.4293C93.6862 25.1879 93.1127 25.0671 92.4308 25.0671H90.9607V32.0238ZM100.832 34H98.3608L102.127 23.0909H105.099L108.86 34H106.388L103.656 25.5838H103.57L100.832 34ZM100.678 29.712H106.516V31.5124H100.678V29.712ZM108.424 24.9925V23.0909H117.384V24.9925H114.044V34H111.764V24.9925H108.424ZM118.859 34V23.0909H126.21V24.9925H121.166V27.592H125.832V29.4936H121.166V32.0984H126.231V34H118.859ZM130.876 23.0909H133.46L135.947 27.7891H136.054L138.541 23.0909H141.125L137.146 30.1435V34H134.855V30.1435L130.876 23.0909ZM151.75 28.5455C151.75 29.7351 151.525 30.7472 151.074 31.5817C150.626 32.4162 150.016 33.0536 149.241 33.494C148.471 33.9308 147.604 34.1491 146.642 34.1491C145.673 34.1491 144.803 33.929 144.032 33.4886C143.261 33.0483 142.652 32.4109 142.205 31.5763C141.757 30.7418 141.534 29.7315 141.534 28.5455C141.534 27.3558 141.757 26.3438 142.205 25.5092C142.652 24.6747 143.261 24.0391 144.032 23.6023C144.803 23.1619 145.673 22.9418 146.642 22.9418C147.604 22.9418 148.471 23.1619 149.241 23.6023C150.016 24.0391 150.626 24.6747 151.074 25.5092C151.525 26.3438 151.75 27.3558 151.75 28.5455ZM149.412 28.5455C149.412 27.7749 149.297 27.125 149.066 26.5959C148.838 26.0668 148.517 25.6655 148.102 25.392C147.686 25.1186 147.2 24.9819 146.642 24.9819C146.085 24.9819 145.598 25.1186 145.183 25.392C144.767 25.6655 144.444 26.0668 144.213 26.5959C143.986 27.125 143.872 27.7749 143.872 28.5455C143.872 29.3161 143.986 29.9659 144.213 30.495C144.444 31.0241 144.767 31.4254 145.183 31.6989C145.598 31.9723 146.085 32.109 146.642 32.109C147.2 32.109 147.686 31.9723 148.102 31.6989C148.517 31.4254 148.838 31.0241 149.066 30.495C149.297 29.9659 149.412 29.3161 149.412 28.5455ZM160.197 23.0909H162.504V30.1754C162.504 30.9709 162.314 31.6669 161.934 32.2635C161.557 32.8601 161.03 33.3253 160.352 33.6591C159.673 33.9893 158.883 34.1545 157.981 34.1545C157.076 34.1545 156.284 33.9893 155.606 33.6591C154.927 33.3253 154.4 32.8601 154.024 32.2635C153.647 31.6669 153.459 30.9709 153.459 30.1754V23.0909H155.765V29.9783C155.765 30.3938 155.856 30.7631 156.037 31.0863C156.222 31.4094 156.481 31.6634 156.815 31.848C157.149 32.0327 157.537 32.125 157.981 32.125C158.429 32.125 158.818 32.0327 159.148 31.848C159.482 31.6634 159.739 31.4094 159.92 31.0863C160.105 30.7631 160.197 30.3938 160.197 29.9783V23.0909ZM164.401 34V23.0909H168.705C169.529 23.0909 170.232 23.2383 170.815 23.533C171.401 23.8242 171.846 24.2379 172.152 24.7741C172.461 25.3068 172.615 25.9336 172.615 26.6545C172.615 27.3789 172.459 28.0021 172.146 28.5241C171.834 29.0426 171.381 29.4403 170.788 29.7173C170.199 29.9943 169.485 30.1328 168.647 30.1328H165.765V28.2791H168.274C168.714 28.2791 169.08 28.2187 169.371 28.098C169.662 27.9773 169.879 27.7962 170.021 27.5547C170.167 27.3132 170.239 27.0131 170.239 26.6545C170.239 26.2923 170.167 25.9869 170.021 25.7383C169.879 25.4897 169.661 25.3015 169.366 25.1737C169.075 25.0423 168.707 24.9766 168.263 24.9766H166.708V34H164.401ZM170.293 29.0355L173.004 34H170.458L167.805 29.0355H170.293ZM177.717 34V23.0909H182.021C182.848 23.0909 183.553 23.2489 184.135 23.565C184.718 23.8775 185.162 24.3125 185.467 24.87C185.776 25.424 185.93 26.0632 185.93 26.7876C185.93 27.5121 185.774 28.1513 185.462 28.7053C185.149 29.2592 184.696 29.6907 184.103 29.9996C183.514 30.3086 182.8 30.4631 181.962 30.4631H179.219V28.6147H181.589C182.033 28.6147 182.399 28.5384 182.687 28.3857C182.978 28.2294 183.194 28.0146 183.336 27.7411C183.482 27.4641 183.555 27.1463 183.555 26.7876C183.555 26.4254 183.482 26.1094 183.336 25.8395C183.194 25.5661 182.978 25.3548 182.687 25.2056C182.395 25.0529 182.026 24.9766 181.579 24.9766H180.023V34H177.717ZM188.049 34H185.578L189.344 23.0909H192.316L196.077 34H193.605L190.872 25.5838H190.787L188.049 34ZM187.895 29.712H193.733V31.5124H187.895V29.712ZM203.059 26.2283C203.016 25.7987 202.833 25.4648 202.51 25.2269C202.187 24.989 201.748 24.87 201.194 24.87C200.818 24.87 200.5 24.9233 200.241 25.0298C199.981 25.1328 199.783 25.2766 199.644 25.4613C199.509 25.646 199.442 25.8555 199.442 26.0898C199.435 26.2852 199.475 26.4556 199.564 26.6012C199.657 26.7468 199.783 26.8729 199.942 26.9794C200.102 27.0824 200.287 27.1729 200.496 27.2511C200.706 27.3256 200.93 27.3896 201.168 27.4428L202.148 27.6772C202.623 27.7837 203.06 27.9258 203.458 28.1033C203.856 28.2809 204.2 28.4993 204.491 28.7585C204.783 29.0178 205.008 29.3232 205.168 29.6747C205.331 30.0263 205.415 30.4293 205.418 30.8839C205.415 31.5515 205.244 32.1303 204.907 32.6204C204.573 33.1069 204.09 33.4851 203.458 33.755C202.829 34.0213 202.071 34.1545 201.184 34.1545C200.303 34.1545 199.536 34.0195 198.882 33.7496C198.233 33.4798 197.725 33.0803 197.359 32.5511C196.997 32.0185 196.807 31.3597 196.789 30.5749H199.021C199.046 30.9407 199.15 31.2461 199.335 31.4911C199.523 31.7326 199.774 31.9155 200.086 32.0398C200.402 32.1605 200.759 32.2209 201.157 32.2209C201.547 32.2209 201.887 32.1641 202.174 32.0504C202.465 31.9368 202.691 31.7788 202.851 31.5763C203.011 31.3739 203.09 31.1413 203.09 30.8786C203.09 30.6335 203.018 30.4276 202.872 30.2607C202.73 30.0937 202.521 29.9517 202.244 29.8345C201.97 29.7173 201.634 29.6108 201.237 29.5149L200.049 29.2166C199.129 28.9929 198.403 28.6431 197.87 28.1673C197.338 27.6914 197.073 27.0504 197.077 26.2443C197.073 25.5838 197.249 25.0067 197.604 24.5131C197.963 24.0195 198.454 23.6342 199.079 23.3572C199.704 23.0803 200.415 22.9418 201.21 22.9418C202.02 22.9418 202.726 23.0803 203.33 23.3572C203.937 23.6342 204.41 24.0195 204.747 24.5131C205.084 25.0067 205.258 25.5785 205.269 26.2283H203.059ZM212.888 26.2283C212.845 25.7987 212.662 25.4648 212.339 25.2269C212.016 24.989 211.577 24.87 211.023 24.87C210.647 24.87 210.329 24.9233 210.07 25.0298C209.811 25.1328 209.612 25.2766 209.473 25.4613C209.338 25.646 209.271 25.8555 209.271 26.0898C209.264 26.2852 209.305 26.4556 209.393 26.6012C209.486 26.7468 209.612 26.8729 209.771 26.9794C209.931 27.0824 210.116 27.1729 210.325 27.2511C210.535 27.3256 210.759 27.3896 210.997 27.4428L211.977 27.6772C212.453 27.7837 212.889 27.9258 213.287 28.1033C213.685 28.2809 214.029 28.4993 214.32 28.7585C214.612 29.0178 214.837 29.3232 214.997 29.6747C215.16 30.0263 215.244 30.4293 215.247 30.8839C215.244 31.5515 215.073 32.1303 214.736 32.6204C214.402 33.1069 213.919 33.4851 213.287 33.755C212.659 34.0213 211.9 34.1545 211.013 34.1545C210.132 34.1545 209.365 34.0195 208.711 33.7496C208.062 33.4798 207.554 33.0803 207.188 32.5511C206.826 32.0185 206.636 31.3597 206.618 30.5749H208.85C208.875 30.9407 208.98 31.2461 209.164 31.4911C209.352 31.7326 209.603 31.9155 209.915 32.0398C210.231 32.1605 210.588 32.2209 210.986 32.2209C211.377 32.2209 211.716 32.1641 212.003 32.0504C212.295 31.9368 212.52 31.7788 212.68 31.5763C212.84 31.3739 212.92 31.1413 212.92 30.8786C212.92 30.6335 212.847 30.4276 212.701 30.2607C212.559 30.0937 212.35 29.9517 212.073 29.8345C211.799 29.7173 211.464 29.6108 211.066 29.5149L209.878 29.2166C208.958 28.9929 208.232 28.6431 207.699 28.1673C207.167 27.6914 206.902 27.0504 206.906 26.2443C206.902 25.5838 207.078 25.0067 207.433 24.5131C207.792 24.0195 208.284 23.6342 208.909 23.3572C209.534 23.0803 210.244 22.9418 211.039 22.9418C211.849 22.9418 212.556 23.0803 213.159 23.3572C213.767 23.6342 214.239 24.0195 214.576 24.5131C214.914 25.0067 215.088 25.5785 215.098 26.2283H212.888ZM219.254 34L216.133 23.0909H218.652L220.458 30.6708H220.549L222.541 23.0909H224.698L226.685 30.6868H226.781L228.587 23.0909H231.106L227.985 34H225.737L223.66 26.8675H223.574L221.502 34H219.254ZM241.75 28.5455C241.75 29.7351 241.525 30.7472 241.074 31.5817C240.626 32.4162 240.016 33.0536 239.241 33.494C238.471 33.9308 237.604 34.1491 236.642 34.1491C235.673 34.1491 234.803 33.929 234.032 33.4886C233.261 33.0483 232.652 32.4109 232.205 31.5763C231.757 30.7418 231.534 29.7315 231.534 28.5455C231.534 27.3558 231.757 26.3438 232.205 25.5092C232.652 24.6747 233.261 24.0391 234.032 23.6023C234.803 23.1619 235.673 22.9418 236.642 22.9418C237.604 22.9418 238.471 23.1619 239.241 23.6023C240.016 24.0391 240.626 24.6747 241.074 25.5092C241.525 26.3438 241.75 27.3558 241.75 28.5455ZM239.412 28.5455C239.412 27.7749 239.297 27.125 239.066 26.5959C238.838 26.0668 238.517 25.6655 238.102 25.392C237.686 25.1186 237.2 24.9819 236.642 24.9819C236.085 24.9819 235.598 25.1186 235.183 25.392C234.767 25.6655 234.444 26.0668 234.213 26.5959C233.986 27.125 233.872 27.7749 233.872 28.5455C233.872 29.3161 233.986 29.9659 234.213 30.495C234.444 31.0241 234.767 31.4254 235.183 31.6989C235.598 31.9723 236.085 32.109 236.642 32.109C237.2 32.109 237.686 31.9723 238.102 31.6989C238.517 31.4254 238.838 31.0241 239.066 30.495C239.297 29.9659 239.412 29.3161 239.412 28.5455ZM243.459 34V23.0909H247.763C248.587 23.0909 249.29 23.2383 249.872 23.533C250.458 23.8242 250.904 24.2379 251.209 24.7741C251.518 25.3068 251.673 25.9336 251.673 26.6545C251.673 27.3789 251.516 28.0021 251.204 28.5241C250.891 29.0426 250.439 29.4403 249.846 29.7173C249.256 29.9943 248.542 30.1328 247.704 30.1328H244.823V28.2791H247.331C247.772 28.2791 248.138 28.2187 248.429 28.098C248.72 27.9773 248.937 27.7962 249.079 27.5547C249.224 27.3132 249.297 27.0131 249.297 26.6545C249.297 26.2923 249.224 25.9869 249.079 25.7383C248.937 25.4897 248.718 25.3015 248.423 25.1737C248.132 25.0423 247.765 24.9766 247.321 24.9766H245.765V34H243.459ZM249.35 29.0355L252.062 34H249.515L246.863 29.0355H249.35ZM257.17 34H253.303V23.0909H257.202C258.299 23.0909 259.244 23.3093 260.036 23.7461C260.828 24.1793 261.437 24.8026 261.863 25.6158C262.292 26.429 262.507 27.402 262.507 28.5348C262.507 29.6712 262.292 30.6477 261.863 31.4645C261.437 32.2812 260.824 32.908 260.025 33.3448C259.229 33.7816 258.278 34 257.17 34ZM255.609 32.0238H257.074C257.756 32.0238 258.329 31.9031 258.794 31.6616C259.263 31.4165 259.615 31.0384 259.849 30.527C260.087 30.0121 260.206 29.348 260.206 28.5348C260.206 27.7287 260.087 27.07 259.849 26.5586C259.615 26.0472 259.265 25.6708 258.8 25.4293C258.335 25.1879 257.761 25.0671 257.079 25.0671H255.609V32.0238Z" fill="white"/>
</svg>
